<svg xmlns="http://www.w3.org/2000/svg" width="80" height="80" viewBox="0 0 80 80"><defs><clipPath id="clip-setting"><path fill="none" d="M0 0h80v80H0z"/></clipPath></defs><g clip-path="url(#clip-setting)"><path fill="#87909f" d="m66.511 24.947-2.432-4.135a4.84 4.84 0 0 0-4.118-2.452 4.391 4.391 0 0 0-2.449.749l-2.919 1.7a4.565 4.565 0 0 1-2.41.688 4.907 4.907 0 0 1-4.883-4.82v-3.4a4.879 4.879 0 0 0-4.865-4.865h-4.867a4.879 4.879 0 0 0-4.868 4.86v3.162a4.907 4.907 0 0 1-4.886 4.823 4.572 4.572 0 0 1-2.411-.689l-2.918-1.459a4.772 4.772 0 0 0-2.463-.694 4.713 4.713 0 0 0-4.1 2.4L13.49 24.95a5.492 5.492 0 0 0-.573 2.843v4.769a5.178 5.178 0 0 0 2.275 4.009l2.919 1.7A4.381 4.381 0 0 1 19.862 40a4.379 4.379 0 0 1-1.752 1.729l-2.919 1.7a4.86 4.86 0 0 0-2.445 3.943v4.769a4.388 4.388 0 0 0 .743 2.667l2.432 4.134a4.84 4.84 0 0 0 4.118 2.458 4.394 4.394 0 0 0 2.449-.749l2.918-1.459a4.563 4.563 0 0 1 2.411-.689 4.907 4.907 0 0 1 4.883 4.82v3.4a4.879 4.879 0 0 0 4.865 4.864h4.864a4.879 4.879 0 0 0 4.871-4.859v-3.162a4.906 4.906 0 0 1 4.886-4.823 4.565 4.565 0 0 1 2.41.688l2.919 1.7a4.763 4.763 0 0 0 2.463.694 4.712 4.712 0 0 0 4.1-2.4l2.433-4.125a6.284 6.284 0 0 0 .572-3.027v-4.769a5.19 5.19 0 0 0-2.274-4.069l-2.919-1.7a4.927 4.927 0 0 1-1.762-1.851 4.935 4.935 0 0 1 1.762-1.851l2.919-1.7a4.853 4.853 0 0 0 2.444-3.941v-4.77a4.377 4.377 0 0 0-.742-2.666M40 47.323A9.759 9.759 0 0 1 30.586 40a9.712 9.712 0 0 1 18.828 0A9.759 9.759 0 0 1 40 47.323"/><path fill="#0f2a53" d="M42.435 8.407a4.878 4.878 0 0 1 4.865 4.865v3.4a4.907 4.907 0 0 0 4.886 4.828 4.565 4.565 0 0 0 2.41-.688l2.919-1.7a4.391 4.391 0 0 1 2.449-.749 4.84 4.84 0 0 1 4.118 2.452l2.432 4.134a4.5 4.5 0 0 1 .4.767c.033.08.059.161.088.243a4.4 4.4 0 0 1 .159.579c.017.086.037.172.049.259a4.39 4.39 0 0 1 .042.733v4.855a4.857 4.857 0 0 1-2.445 3.942l-2.919 1.7a4.927 4.927 0 0 0-1.762 1.851 4.876 4.876 0 0 0 .735 1.014c.026.029.058.053.085.081a4.8 4.8 0 0 0 .39.362 5.19 5.19 0 0 0 .551.392l2.919 1.7a5.007 5.007 0 0 1 .669.546c.047.044.093.087.138.133a5.2 5.2 0 0 1 .524.627c.03.044.056.091.085.135a5.253 5.253 0 0 1 .342.614c.028.059.059.117.085.178a5.4 5.4 0 0 1 .253.745c.021.079.037.159.055.239a5.774 5.774 0 0 1 .105.685c0 .058.015.114.019.173v4.763a6.3 6.3 0 0 1-.573 3.027l-2.432 4.135a4.712 4.712 0 0 1-4.1 2.4 4.763 4.763 0 0 1-2.463-.694l-2.919-1.7a4.565 4.565 0 0 0-2.41-.688 4.907 4.907 0 0 0-4.884 4.821v3.161a4.878 4.878 0 0 1-4.864 4.865H37.57a4.879 4.879 0 0 1-4.864-4.865v-3.4A4.907 4.907 0 0 0 27.82 58.5a4.571 4.571 0 0 0-2.411.688l-2.918 1.46a4.394 4.394 0 0 1-2.449.749 4.84 4.84 0 0 1-4.118-2.452l-2.433-4.135a4.394 4.394 0 0 1-.742-2.667v-4.77c0-.045.011-.09.015-.136a4.276 4.276 0 0 1 .1-.664c.016-.074.031-.146.051-.219a4.777 4.777 0 0 1 .265-.722c.026-.056.058-.109.086-.164a4.8 4.8 0 0 1 .373-.609c.031-.042.057-.086.089-.128a5.013 5.013 0 0 1 .575-.623c.048-.045.1-.088.149-.131a5.442 5.442 0 0 1 .742-.546l2.919-1.7a4.392 4.392 0 0 0 .547-.349 4.243 4.243 0 0 0 .383-.332c.029-.027.062-.051.09-.078a4.454 4.454 0 0 0 .732-.972 4.385 4.385 0 0 0-1.752-1.729l-2.919-1.7a5.178 5.178 0 0 1-2.275-4.009v-4.799a5.446 5.446 0 0 1 .016-.827c.008-.087.021-.174.033-.261a5.551 5.551 0 0 1 .125-.629c.022-.086.042-.171.069-.256a5.556 5.556 0 0 1 .329-.84l2.433-4.134a4.713 4.713 0 0 1 4.1-2.4 4.763 4.763 0 0 1 2.463.694l2.918 1.459a4.572 4.572 0 0 0 2.411.689 4.907 4.907 0 0 0 4.886-4.823v-3.163a4.879 4.879 0 0 1 4.868-4.865ZM40 47.323c.311 0 .618-.018.922-.047.1-.009.2-.026.3-.039.2-.025.4-.054.6-.092.118-.023.234-.049.349-.076q.262-.06.52-.135c.121-.035.243-.071.362-.111.16-.054.317-.113.473-.174.122-.048.245-.094.365-.147.146-.064.287-.136.429-.207a9.764 9.764 0 0 0 1.514-.94l.2-.15c.157-.125.309-.258.458-.393l.164-.149c.155-.146.305-.3.449-.452l.106-.116c.156-.174.309-.351.453-.536l.006-.008A9.76 9.76 0 0 0 49.417 40a9.712 9.712 0 0 0-18.828 0 9.73 9.73 0 0 0 1.742 3.543l.012.016c.143.183.293.359.448.531l.111.121c.143.155.292.3.446.449.054.052.11.1.166.152.149.134.3.266.456.391.066.052.135.1.2.151a9.8 9.8 0 0 0 1.511.938c.142.071.284.144.43.208.12.053.243.1.365.147a8.444 8.444 0 0 0 .835.285c.171.05.345.1.52.135a7.7 7.7 0 0 0 .949.168c.1.013.2.03.3.039.3.029.611.047.922.047m2.433-42.914H37.57a8.875 8.875 0 0 0-8.864 8.865v3.152a.922.922 0 0 1-.886.833.575.575 0 0 1-.314-.095c-.1-.062-.2-.119-.308-.171l-2.8-1.4a8.791 8.791 0 0 0-4.369-1.175 8.691 8.691 0 0 0-7.573 4.4l-2.411 4.1c-.047.079-.09.159-.131.241a9.6 9.6 0 0 0-.57 1.437 8.22 8.22 0 0 0-.109.391l-.014.056a9.738 9.738 0 0 0-.215 1.086c-.025.175-.042.31-.054.445a9.578 9.578 0 0 0-.032 1.288v4.661c0 .108 0 .221.01.323a9.1 9.1 0 0 0 4.046 7.05c.054.036.109.07.164.1a9.424 9.424 0 0 0-1.3.945c-.094.079-.18.155-.264.233a9.113 9.113 0 0 0-1.022 1.114 5.457 5.457 0 0 0-.195.272 8.84 8.84 0 0 0-.653 1.074c-.046.082-.1.187-.151.294a8.788 8.788 0 0 0-.5 1.355 7.732 7.732 0 0 0-.09.37 8.748 8.748 0 0 0-.189 1.2 5.148 5.148 0 0 0-.028.348v4.861a8.358 8.358 0 0 0 1.343 4.86l2.384 4.053a8.812 8.812 0 0 0 7.567 4.427 8.391 8.391 0 0 0 4.426-1.265l2.73-1.366c.1-.052.208-.109.308-.171a.567.567 0 0 1 .314-.1.921.921 0 0 1 .886.823v3.4a8.875 8.875 0 0 0 8.864 8.865h4.865a8.874 8.874 0 0 0 8.865-8.859v-3.152a.922.922 0 0 1 .887-.832.571.571 0 0 1 .314.1l.081.048 2.918 1.7a8.713 8.713 0 0 0 12.052-3.166l2.411-4.1a4.011 4.011 0 0 0 .194-.374 10.351 10.351 0 0 0 .931-4.794v-4.65c0-.084 0-.167-.008-.25a5.235 5.235 0 0 0-.033-.336 9.781 9.781 0 0 0-.172-1.109l-3.924.778 3.911-.836a7.074 7.074 0 0 0-.083-.356 9.376 9.376 0 0 0-.444-1.3c-.046-.108-.1-.217-.152-.325a9.107 9.107 0 0 0-.578-1.04c-.06-.1-.119-.19-.181-.28a9.089 9.089 0 0 0-.938-1.128 6.373 6.373 0 0 0-.235-.23 8.986 8.986 0 0 0-1.22-.987c-.066-.044-.134-.086-.2-.127l-.168-.1.168-.1a8.878 8.878 0 0 0 4.426-7.236V27.49a8.411 8.411 0 0 0-.081-1.246 8.205 8.205 0 0 0-.083-.466 8.493 8.493 0 0 0-.313-1.144 6.452 6.452 0 0 0-.174-.467 8.449 8.449 0 0 0-.688-1.327l-2.388-4.056a8.813 8.813 0 0 0-7.566-4.424 8.394 8.394 0 0 0-4.552 1.34l-2.831 1.652-.081.048a.571.571 0 0 1-.314.095.921.921 0 0 1-.887-.823v-3.4a8.874 8.874 0 0 0-8.864-8.865M34.82 40a5.7 5.7 0 0 1 10.366 0 5.782 5.782 0 0 1-.674 1.1l-.009.011a5.564 5.564 0 0 1-.263.309l-.058.065a6.47 6.47 0 0 1-.273.275l-.054.049c-.005 0-.04.036-.045.039-.088.08-.177.16-.271.235l-.112.081a5.765 5.765 0 0 1-.9.558l-.059.03c-.063.031-.124.064-.188.092a2.705 2.705 0 0 1-.135.053l-.078.031c-.1.037-.186.073-.279.1a5.413 5.413 0 0 1-.515.143c-.079.018-.145.034-.212.047-.108.021-.226.036-.344.051l-.164.023c-.213.021-.391.031-.551.031s-.339-.01-.545-.029h-.007l-.162-.022a5.733 5.733 0 0 1-.352-.052c-.068-.013-.133-.029-.2-.044a5.502 5.502 0 0 1-.522-.145c-.093-.031-.187-.068-.28-.1l-.087-.034-.122-.049c-.068-.03-.129-.062-.19-.093l-.064-.032a5.723 5.723 0 0 1-.887-.55l-.118-.087c-.1-.075-.185-.155-.273-.234l-.039-.035-.06-.054a5.596 5.596 0 0 1-.266-.268l-.062-.068c-.093-.1-.178-.2-.258-.3L35.5 41.1a5.811 5.811 0 0 1-.68-1.1"/><path fill="#d0d7d8" d="m64.782 43.4-2.919-1.7a5.006 5.006 0 0 1 0-8.513l2.919-1.7a4.621 4.621 0 0 0 1.7-6.567l-2.432-4.134a4.84 4.84 0 0 0-4.118-2.452 4.4 4.4 0 0 0-2.449.748l-2.919 1.7a4.565 4.565 0 0 1-2.41.688 4.907 4.907 0 0 1-4.886-4.824v-3.4A4.878 4.878 0 0 0 42.4 8.378h-4.859a4.878 4.878 0 0 0-4.865 4.865V16.4a4.907 4.907 0 0 1-4.886 4.824 4.572 4.572 0 0 1-2.411-.689l-2.918-1.46a4.782 4.782 0 0 0-2.461-.69 4.712 4.712 0 0 0-4.1 2.4l-2.432 4.134a5.3 5.3 0 0 0 1.7 6.811l2.919 1.7a4.791 4.791 0 0 1 0 8.27l-2.919 1.7a4.622 4.622 0 0 0-1.7 6.567l2.426 4.133a4.842 4.842 0 0 0 4.118 2.452 4.387 4.387 0 0 0 2.449-.75l2.918-1.459a4.563 4.563 0 0 1 2.411-.689 4.907 4.907 0 0 1 4.886 4.823v3.406a4.879 4.879 0 0 0 4.865 4.864H42.4a4.879 4.879 0 0 0 4.865-4.864v-3.157a4.905 4.905 0 0 1 4.891-4.826 4.564 4.564 0 0 1 2.41.687l2.919 1.7a4.763 4.763 0 0 0 2.463.694 4.712 4.712 0 0 0 4.1-2.4l2.432-4.135a5.548 5.548 0 0 0-1.7-7.053m-24.807 3.9a9.729 9.729 0 1 1 9.727-9.729 9.757 9.757 0 0 1-9.729 9.729"/><path fill="#d0d7d8" d="m61.893 33.216 2.919-1.7a4.864 4.864 0 0 0 2.433-3.822l-6.094 6.093a5.032 5.032 0 0 1 .742-.568M14.049 44.384l.414-.415a5.228 5.228 0 0 0-.414.415"/><path fill="#e4eaf7" d="M30.274 37.6A9.758 9.758 0 0 1 40 27.866a9.62 9.62 0 0 1 4.339 1.034l7.444-7.444a4.883 4.883 0 0 1-4.483-4.778v-3.406a4.823 4.823 0 0 0-.352-1.787L20.461 37.971a4.569 4.569 0 0 1-2.348 3.759l-2.919 1.7a5.492 5.492 0 0 0-.731.538l-.414.414A4.488 4.488 0 0 0 13.492 50l2.432 4.135a5.186 5.186 0 0 0 1.548 1.638l13.84-13.84a9.627 9.627 0 0 1-1.038-4.333M60.766 34.17l.385-.385a4.823 4.823 0 0 0-.385.385"/><path fill="#e4eaf7" d="m61.151 33.785 6.093-6.093a4.375 4.375 0 0 0-.73-2.745l-2.432-4.135A5.218 5.218 0 0 0 62.57 19.2L48.634 33.135a9.626 9.626 0 0 1 1.1 4.46A9.758 9.758 0 0 1 40 47.324a9.626 9.626 0 0 1-4.46-1.1l-7.487 7.486a4.892 4.892 0 0 1 4.65 4.8v3.4c0 .1.023.189.028.285L60.766 34.17a5.179 5.179 0 0 1 .385-.385"/></g></svg>